<svg preserveAspectRatio="none" width="100%" height="100%" overflow="visible" style="display: block;" viewBox="0 0 27.5599 18.7908" fill="none" xmlns="http://www.w3.org/2000/svg">
<path id="Union" fill-rule="evenodd" clip-rule="evenodd" d="M13.1536 0C15.484 0 17.5843 0.700262 19.0685 1.82106C23.8333 2.14603 27.5599 5.01209 27.5599 8.50062C27.5599 8.78481 27.5321 9.06459 27.484 9.33949C27.5327 9.65167 27.5599 9.96877 27.5599 10.2902C27.5599 14.985 22.2317 18.7908 15.659 18.7908H11.9009C5.3282 18.7908 0 14.985 0 10.2902C0 9.96881 0.025988 9.65164 0.0746251 9.33949C0.0266297 9.06463 0 8.78477 0 8.50062C0 5.3862 2.97027 2.76781 6.99763 2.01068C8.49067 0.779517 10.6942 0 13.1536 0C12.2993 0.148973 11.5137 0.385683 10.8206 0.687704C10.0983 1.00144 9.48881 1.37929 8.98926 1.79659C9.12395 1.7925 9.25932 1.7896 9.39542 1.7896C9.23667 1.80806 9.07908 1.82861 8.9232 1.85252C8.82303 1.93858 8.72791 2.02647 8.63693 2.11554C9.13902 2.01346 9.65402 1.93321 10.1808 1.87873C9.91912 1.84881 9.65708 1.82018 9.39542 1.7896H17.3093C16.8114 1.3751 16.2048 0.999671 15.4865 0.687704C14.7935 0.385683 14.0078 0.148973 13.1536 0ZM4.70016 14.3125C6.56514 15.7741 9.22892 16.6493 11.9009 16.5722C13.1536 16.5597 14.4063 16.5538 15.659 16.5538C18.1632 16.5899 20.6062 15.7979 22.3802 14.4977C21.1121 14.9534 19.6808 15.2116 18.1645 15.2116H9.39542C7.68452 15.2116 6.08187 14.8832 4.70016 14.3125ZM20.7005 3.63338C21.0831 4.30759 21.2963 5.04397 21.2963 5.81621C21.2963 9.02842 17.6507 11.6324 13.1536 11.6324C8.6565 11.6324 5.01089 9.02842 5.01089 5.81621C5.01089 5.22392 5.13529 4.65241 5.36566 4.11399C3.37835 5.53707 2.25284 7.41795 2.147 9.24599C3.05363 11.6727 6.32428 13.2665 9.39542 13.0917C12.3184 13.0135 15.2415 12.9746 18.1645 12.9746C21.4674 13.023 24.6306 11.0553 24.893 8.50062C24.9066 8.4168 24.9158 8.33257 24.9223 8.24808C24.4027 6.48887 22.9069 4.79455 20.7005 3.63338ZM10.7925 1.94777C9.85848 2.11297 8.9705 2.3541 8.14881 2.66081C7.35306 3.68545 7.09878 4.82776 7.35974 5.81621C7.87553 8.01298 10.5384 9.42364 13.1536 9.39542C15.7687 9.42364 18.4316 8.01298 18.9474 5.81621C19.2052 4.83975 18.9596 3.71338 18.1865 2.69839C18.1792 2.69767 18.1718 2.69734 18.1645 2.69664C16.5178 2.54829 14.8712 2.38746 13.2245 2.21428C12.4138 2.12902 11.6033 2.03895 10.7925 1.94777ZM6.46914 2.49566C6.27727 2.56912 6.08933 2.64586 5.90761 2.7281C5.06121 3.10671 4.34119 3.57319 3.7545 4.09477C4.47534 3.61099 5.28004 3.19046 6.15229 2.84606C6.25204 2.72635 6.35797 2.60962 6.46914 2.49566Z" fill="var(--fill-0, black)"/>
</svg>
