<svg preserveAspectRatio="none" width="100%" height="100%" overflow="visible" style="display: block;" viewBox="0 0 27.5599 21.1408" fill="none" xmlns="http://www.w3.org/2000/svg">
<path id="Union" fill-rule="evenodd" clip-rule="evenodd" d="M13.1536 0C15.484 0 17.5843 0.787836 19.0685 2.0488C23.8333 2.41441 27.5599 5.63889 27.5599 9.56369C27.5599 9.88342 27.5321 10.1982 27.484 10.5075C27.5327 10.8587 27.5599 11.2155 27.5599 11.5771C27.5599 16.859 22.2317 21.1408 15.659 21.1408H11.9009C5.3282 21.1408 0 16.859 0 11.5771C0 11.2155 0.025988 10.8587 0.0746251 10.5075C0.0266297 10.1982 0 9.88338 0 9.56369C0 6.0598 2.97027 3.11395 6.99763 2.26214C8.49067 0.877002 10.6942 0 13.1536 0C12.2993 0.167603 11.5137 0.433916 10.8206 0.773708C10.0983 1.12668 9.48881 1.55179 8.98926 2.02127C9.12395 2.01667 9.25932 2.01341 9.39542 2.01341C9.23667 2.03417 9.07908 2.0573 8.9232 2.08419C8.82303 2.18102 8.72791 2.2799 8.63693 2.38011C9.13902 2.26526 9.65402 2.17498 10.1808 2.11369C9.91912 2.08002 9.65708 2.04781 9.39542 2.01341H17.3093C16.8114 1.54707 16.2048 1.12469 15.4865 0.773708C14.7935 0.433915 14.0078 0.167603 13.1536 0ZM4.70016 16.1024C6.56514 17.7468 9.22892 18.7315 11.9009 18.6447C13.1536 18.6307 14.4063 18.624 15.659 18.624C18.1632 18.6646 20.6062 17.7735 22.3802 16.3108C21.1121 16.8235 19.6808 17.114 18.1645 17.114H9.39542C7.68452 17.114 6.08187 16.7445 4.70016 16.1024ZM20.7005 4.08777C21.0831 4.8463 21.2963 5.67476 21.2963 6.54358C21.2963 10.1575 17.6507 13.0872 13.1536 13.0872C8.6565 13.0872 5.01089 10.1575 5.01089 6.54358C5.01089 5.87722 5.13529 5.23424 5.36566 4.62848C3.37835 6.22952 2.25284 8.34563 2.147 10.4023C3.05363 13.1325 6.32428 14.9256 9.39542 14.729C12.3184 14.6409 15.2415 14.5972 18.1645 14.5972C21.4674 14.6516 24.6306 12.4379 24.893 9.56369C24.9066 9.4694 24.9158 9.37463 24.9223 9.27957C24.4027 7.30036 22.9069 5.39415 20.7005 4.08777ZM10.7925 2.19135C9.85848 2.37722 8.9705 2.6485 8.14881 2.99357C7.35306 4.14635 7.09878 5.43152 7.35974 6.54358C7.87553 9.01508 10.5384 10.6021 13.1536 10.5704C15.7687 10.6021 18.4316 9.01508 18.9474 6.54358C19.2052 5.44501 18.9596 4.17777 18.1865 3.03584C18.1792 3.03504 18.1718 3.03466 18.1645 3.03388C16.5178 2.86698 14.8712 2.68603 13.2245 2.4912C12.4138 2.39527 11.6033 2.29393 10.7925 2.19135ZM6.46914 2.80776C6.27727 2.89041 6.08933 2.97675 5.90761 3.06927C5.06121 3.49524 4.34119 4.02005 3.7545 4.60685C4.47534 4.06257 5.28004 3.58945 6.15229 3.20199C6.25204 3.0673 6.35797 2.93598 6.46914 2.80776Z" fill="var(--fill-0, black)"/>
</svg>
