<svg width="55" height="55" viewBox="0 0 55 55" fill="none" xmlns="http://www.w3.org/2000/svg">
<line x1="1" y1="4.37115e-08" x2="1" y2="9" stroke="#030404" stroke-width="2"/>
<line x1="9" y1="1" x2="-8.74228e-08" y2="0.999999" stroke="#030404" stroke-width="2"/>
<line y1="-1" x2="9" y2="-1" transform="matrix(-4.37115e-08 -1 -1 4.37115e-08 0 55)" stroke="#030404" stroke-width="2"/>
<line y1="-1" x2="9" y2="-1" transform="matrix(-1 8.74228e-08 8.74228e-08 1 9 55)" stroke="#030404" stroke-width="2"/>
<line y1="-1" x2="9" y2="-1" transform="matrix(4.37115e-08 1 1 -4.37115e-08 55 0)" stroke="#030404" stroke-width="2"/>
<line y1="-1" x2="9" y2="-1" transform="matrix(1 -8.74228e-08 -8.74228e-08 -1 46 0)" stroke="#030404" stroke-width="2"/>
<line x1="54" y1="55" x2="54" y2="46" stroke="#030404" stroke-width="2"/>
<line x1="46" y1="54" x2="55" y2="54" stroke="#030404" stroke-width="2"/>
<path d="M20.083 35.9167L35.9163 20.0834" stroke="#030404" stroke-width="2" stroke-linecap="round" stroke-linejoin="round"/>
<path d="M20.083 20.0834H35.9163V35.9167" stroke="#030404" stroke-width="2" stroke-linecap="round" stroke-linejoin="round"/>
</svg>
