<svg width="1860" height="901" viewBox="0 0 1860 901" fill="none" xmlns="http://www.w3.org/2000/svg">
<path d="M35.7588 702.393L35.5537 702.542L3 726.385V871.343C3.35547 871.415 3.70114 871.564 4.00977 871.797L35.5537 895.645C36.018 895.996 36.3232 896.478 36.4609 897H196.891L248.997 872.2L249.099 872.151H1610.9L1611 872.2L1663.11 897H1823.54C1823.68 896.478 1823.98 895.996 1824.45 895.645L1855.99 871.797C1856.3 871.564 1856.65 871.415 1857 871.343V726.385L1824.45 702.542L1824.24 702.393V637.019H1825.24V701.886L1857.8 725.728L1858 725.877V871.344C1858.58 871.461 1859.11 871.778 1859.49 872.283C1860.33 873.385 1860.11 874.953 1859.01 875.785L1827.46 899.633C1826.36 900.465 1824.79 900.248 1823.96 899.146C1823.7 898.798 1823.54 898.403 1823.48 898H1662.88L1662.78 897.951L1610.68 873.151H249.324L197.218 897.951L197.116 898H36.5195C36.4609 898.403 36.3032 898.798 36.04 899.146C35.2073 900.248 33.6394 900.465 32.5381 899.633L0.994141 875.785C-0.107157 874.953 -0.324664 873.385 0.507812 872.283C0.88927 871.779 1.4255 871.461 2 871.344V725.877L2.2041 725.728L34.7588 701.886V637.019H35.7588V702.393ZM1823.96 0.99217C1824.8 -0.108955 1826.36 -0.326633 1827.46 0.505842L1859.01 24.3535C1860.11 25.1862 1860.33 26.7541 1859.5 27.8555C1859.11 28.3605 1858.58 28.6766 1858 28.7939V174.123L1857.8 174.272L1825.24 198.114V262.981H1824.24V197.607L1824.45 197.458L1857 173.615V28.7949C1856.65 28.7227 1856.3 28.5746 1855.99 28.3418L1824.45 4.49412C1823.94 4.11221 1823.63 3.57525 1823.51 2.99998H856.361L812.722 27.7832L812.472 27.3428V27.8486H304.575L304.457 27.7783L262.855 2.99998H36.5176C36.6405 3.8698 36.302 4.77824 35.5518 5.34569L4.00781 29.1933C3.69992 29.4261 3.35456 29.5742 3 29.6465V173.615L35.5537 197.458L35.7588 197.607V262.981H34.7588V198.114L2.2041 174.272L2 174.123V29.6465C1.42462 29.5292 0.887826 29.2122 0.505859 28.707C-0.326729 27.6057 -0.109057 26.0377 0.992188 25.2051L32.5361 1.3574C33.6374 0.525199 35.2055 0.742723 36.0381 1.84373C36.0763 1.89429 36.1097 1.94758 36.1436 1.99998H263.131L263.249 2.0703L304.851 26.8486H812.343L855.982 2.06541L856.097 1.99998H1823.51C1823.58 1.64536 1823.73 1.30012 1823.96 0.99217Z" fill="#909090"/>
</svg>
