<svg width="189" height="35" viewBox="0 0 189 35" fill="none" xmlns="http://www.w3.org/2000/svg">
<path d="M46.2358 28.2921V25.8509H36.067V12.706H38.3351V23.8979H44.3835V12.706H46.6517V23.8979H48.3528V28.2921H46.2358Z" fill="black"/>
<path d="M50.234 25.8509V15.8983H52.3132V22.9402L57.133 15.8983H59.1176V25.8509H57.0385V18.809L52.2187 25.8509H50.234Z" fill="black"/>
<path d="M66.4957 29.6066V26.0574C64.7568 26.0574 63.44 25.6193 62.5454 24.743C61.6507 23.8666 61.2034 22.6085 61.2034 20.9685V20.5929C61.2034 19.028 61.6507 17.82 62.5454 16.9687C63.44 16.1174 64.7568 15.6917 66.4957 15.6917V12.706H68.5748V15.6917C70.3012 15.6917 71.6116 16.1174 72.5063 16.9687C73.4136 17.82 73.8672 19.028 73.8672 20.5929V20.9685C73.8672 22.6085 73.4136 23.8666 72.5063 24.743C71.6116 25.6193 70.3012 26.0574 68.5748 26.0574V29.6066H66.4957ZM71.7503 20.9685V20.5929C71.7503 19.5538 71.4919 18.7777 70.9753 18.2644C70.4713 17.7511 69.6585 17.4945 68.537 17.4945V24.2547C69.6585 24.2547 70.4713 23.9856 70.9753 23.4472C71.4919 22.8964 71.7503 22.0702 71.7503 20.9685ZM63.3203 20.5741V20.9685C63.3203 22.0702 63.5786 22.8964 64.0953 23.4472C64.6119 23.9856 65.4247 24.2547 66.5335 24.2547V17.4945C65.412 17.4945 64.593 17.7511 64.0764 18.2644C63.5723 18.7777 63.3203 19.5476 63.3203 20.5741Z" fill="black"/>
<path d="M75.9463 29.6066V15.8983H77.8742V17.5696C78.1767 16.9937 78.624 16.5368 79.2162 16.1987C79.8211 15.8607 80.5015 15.6917 81.2576 15.6917C82.5681 15.6917 83.6013 16.0986 84.3574 16.9123C85.1134 17.7261 85.4914 18.9529 85.4914 20.5929V20.9685C85.4914 22.0952 85.315 23.0404 84.9622 23.804C84.6094 24.5552 84.118 25.1185 83.4879 25.4941C82.8579 25.8697 82.1144 26.0574 81.2576 26.0574C80.5393 26.0574 79.8841 25.901 79.2918 25.588C78.6996 25.275 78.2775 24.8368 78.0255 24.2735V29.6066H75.9463ZM80.7661 24.2547C81.5474 24.2547 82.1774 23.9856 82.6563 23.4472C83.1351 22.9089 83.3745 22.0827 83.3745 20.9685V20.5929C83.3745 19.5413 83.1414 18.7651 82.6752 18.2644C82.2089 17.7511 81.5726 17.4945 80.7661 17.4945C80.2999 17.4945 79.8526 17.5946 79.4242 17.7949C79.0083 17.9952 78.6681 18.2894 78.4035 18.6775C78.1515 19.0656 78.0255 19.5476 78.0255 20.1235V21.4379C78.0255 22.0639 78.1515 22.5897 78.4035 23.0153C78.6681 23.4285 79.0083 23.7414 79.4242 23.9543C79.84 24.1546 80.2873 24.2547 80.7661 24.2547Z" fill="black"/>
<path d="M91.9223 26.0574C91.0024 26.0574 90.1708 25.8697 89.4273 25.4941C88.6839 25.106 88.0916 24.5364 87.6506 23.7853C87.2222 23.0216 87.008 22.0827 87.008 20.9685V20.5929C87.008 19.5413 87.2222 18.6525 87.6506 17.9264C88.0916 17.1877 88.6839 16.6307 89.4273 16.2551C90.1708 15.8795 91.0024 15.6917 91.9223 15.6917C92.8547 15.6917 93.6864 15.8795 94.4173 16.2551C95.1607 16.6307 95.7466 17.1877 96.1751 17.9264C96.6161 18.6525 96.8366 19.5413 96.8366 20.5929V20.9685C96.8366 22.0827 96.6161 23.0216 96.1751 23.7853C95.7466 24.5364 95.1607 25.106 94.4173 25.4941C93.6864 25.8697 92.8547 26.0574 91.9223 26.0574ZM91.9223 24.2547C92.4011 24.2547 92.8548 24.142 93.2832 23.9167C93.7116 23.6914 94.0581 23.3408 94.3227 22.8651C94.5874 22.3769 94.7197 21.7447 94.7197 20.9685V20.5929C94.7197 19.8793 94.5874 19.2972 94.3227 18.8465C94.0581 18.3833 93.7116 18.0453 93.2832 17.8325C92.8548 17.6071 92.4011 17.4945 91.9223 17.4945C91.4435 17.4945 90.9898 17.6071 90.5614 17.8325C90.133 18.0453 89.7865 18.3833 89.5218 18.8465C89.2572 19.2972 89.1249 19.8793 89.1249 20.5929V20.9685C89.1249 21.7447 89.2572 22.3769 89.5218 22.8651C89.7865 23.3408 90.133 23.6914 90.5614 23.9167C90.9898 24.142 91.4435 24.2547 91.9223 24.2547Z" fill="black"/>
<path d="M98.9084 25.8509V15.8983H103.634C104.478 15.8983 105.158 16.0172 105.675 16.2551C106.204 16.4804 106.595 16.7997 106.847 17.2128C107.099 17.6134 107.225 18.0766 107.225 18.6024C107.225 19.0406 107.093 19.4662 106.828 19.8793C106.563 20.2799 106.192 20.5491 105.713 20.6868C106.33 20.837 106.796 21.125 107.111 21.5506C107.439 21.9637 107.603 22.452 107.603 23.0153C107.603 23.8791 107.313 24.5677 106.733 25.081C106.154 25.5942 105.247 25.8509 104.012 25.8509H98.9084ZM100.987 24.0857H103.728C104.409 24.0857 104.875 23.9793 105.127 23.7665C105.391 23.5411 105.524 23.2282 105.524 22.8276C105.524 22.4269 105.391 22.1265 105.127 21.9262C104.875 21.7134 104.409 21.607 103.728 21.607H100.987V24.0857ZM100.987 19.992H103.445C104.075 19.992 104.516 19.8918 104.768 19.6915C105.02 19.4787 105.146 19.1908 105.146 18.8277C105.146 18.4647 105.02 18.183 104.768 17.9827C104.516 17.7699 104.075 17.6635 103.445 17.6635H100.987V19.992Z" fill="black"/>
<path d="M114.035 26.0574C113.115 26.0574 112.284 25.8697 111.54 25.4941C110.797 25.106 110.205 24.5364 109.764 23.7853C109.335 23.0216 109.121 22.0827 109.121 20.9685V20.5929C109.121 19.5413 109.335 18.6525 109.764 17.9264C110.205 17.1877 110.797 16.6307 111.54 16.2551C112.284 15.8795 113.115 15.6917 114.035 15.6917C114.968 15.6917 115.799 15.8795 116.53 16.2551C117.274 16.6307 117.86 17.1877 118.288 17.9264C118.729 18.6525 118.95 19.5413 118.95 20.5929V20.9685C118.95 22.0827 118.729 23.0216 118.288 23.7853C117.86 24.5364 117.274 25.106 116.53 25.4941C115.799 25.8697 114.968 26.0574 114.035 26.0574ZM114.035 24.2547C114.514 24.2547 114.968 24.142 115.396 23.9167C115.825 23.6914 116.171 23.3408 116.436 22.8651C116.7 22.3769 116.833 21.7447 116.833 20.9685V20.5929C116.833 19.8793 116.7 19.2972 116.436 18.8465C116.171 18.3833 115.825 18.0453 115.396 17.8325C114.968 17.6071 114.514 17.4945 114.035 17.4945C113.556 17.4945 113.103 17.6071 112.674 17.8325C112.246 18.0453 111.899 18.3833 111.635 18.8465C111.37 19.2972 111.238 19.8793 111.238 20.5929V20.9685C111.238 21.7447 111.37 22.3769 111.635 22.8651C111.899 23.3408 112.246 23.6914 112.674 23.9167C113.103 24.142 113.556 24.2547 114.035 24.2547Z" fill="black"/>
<path d="M121.021 25.8509V15.8983H123.1V22.9402L127.92 15.8983H129.905V25.8509H127.826V18.809L123.006 25.8509H121.021ZM125.444 14.7716C124.411 14.7716 123.649 14.5462 123.157 14.0956C122.678 13.6324 122.439 12.9814 122.439 12.1426H124.367C124.367 12.5933 124.455 12.9188 124.631 13.1191C124.82 13.3194 125.098 13.4195 125.463 13.4195C125.829 13.4195 126.099 13.3194 126.276 13.1191C126.465 12.9188 126.559 12.5933 126.559 12.1426H128.487C128.487 12.9814 128.242 13.6324 127.75 14.0956C127.259 14.5462 126.49 14.7716 125.444 14.7716Z" fill="black"/>
<path d="M140.213 26.0574C139.494 26.0574 138.877 25.926 138.36 25.6631C137.856 25.3877 137.472 25.0121 137.207 24.5364C136.943 24.0607 136.81 23.5286 136.81 22.9402C136.81 21.9512 137.107 21.2189 137.699 20.7431C138.291 20.2549 139.161 20.0108 140.307 20.0108H143.426V19.4662C143.426 18.7151 143.256 18.2018 142.916 17.9264C142.588 17.6384 142.065 17.4945 141.347 17.4945C140.704 17.4945 140.232 17.5946 139.929 17.7949C139.627 17.9952 139.45 18.2706 139.4 18.6212H137.378C137.415 18.0453 137.598 17.5383 137.926 17.1001C138.253 16.6619 138.713 16.3177 139.305 16.0673C139.91 15.8169 140.622 15.6917 141.441 15.6917C142.26 15.6917 142.972 15.8169 143.577 16.0673C144.195 16.3177 144.667 16.712 144.995 17.2503C145.335 17.7761 145.505 18.4772 145.505 19.3535V23.3158C145.505 23.8416 145.511 24.3048 145.524 24.7054C145.537 25.0935 145.568 25.4753 145.618 25.8509H143.728C143.691 25.5629 143.659 25.3188 143.634 25.1185C143.621 24.9182 143.615 24.6678 143.615 24.3674C143.376 24.8306 142.96 25.2312 142.367 25.5692C141.788 25.8947 141.07 26.0574 140.213 26.0574ZM140.78 24.2547C141.259 24.2547 141.693 24.1733 142.084 24.0106C142.487 23.8478 142.808 23.6037 143.048 23.2782C143.3 22.9527 143.426 22.5584 143.426 22.0952V21.5506H140.685C140.156 21.5506 139.728 21.6633 139.4 21.8886C139.085 22.114 138.927 22.4457 138.927 22.8839C138.927 23.297 139.072 23.6288 139.362 23.8791C139.665 24.1295 140.137 24.2547 140.78 24.2547Z" fill="black"/>
<path d="M149.3 29.8131C149.111 29.8131 148.922 29.7944 148.733 29.7568V27.9541C148.922 27.9916 149.111 28.0104 149.3 28.0104C149.577 28.0104 149.804 27.9416 149.98 27.8038C150.157 27.6787 150.321 27.4596 150.472 27.1466C150.623 26.8336 150.8 26.4017 151.001 25.8509L146.748 15.8983H149.017L152.079 23.5975L154.838 15.8983H156.955L153.08 25.8509C152.715 26.7773 152.368 27.5347 152.041 28.1231C151.713 28.7115 151.341 29.1371 150.926 29.4C150.51 29.6754 149.968 29.8131 149.3 29.8131Z" fill="black"/>
<path d="M157.14 28.1982V24.0857H158.274C158.451 23.8228 158.602 23.4159 158.728 22.8651C158.854 22.3018 158.949 21.657 159.012 20.9309C159.087 20.2048 159.125 19.4662 159.125 18.7151V15.8983H166.591V24.0857H167.914V28.1982H165.986V25.8509H159.068V28.1982H157.14ZM160.391 24.0857H164.512V17.6635H161.129V19.0906C161.129 20.0546 161.072 20.981 160.958 21.8699C160.845 22.7462 160.656 23.4848 160.391 24.0857Z" fill="black"/>
<path d="M169.714 25.8509V15.8983H171.793V22.9402L176.613 15.8983H178.598V25.8509H176.519V18.809L171.699 25.8509H169.714Z" fill="black"/>
<path d="M183.613 25.8509V17.6635H180.305V15.8983H189V17.6635H185.692V25.8509H183.613Z" fill="black"/>
<path d="M36.1578 9.2673L37.4588 5.85303H38.0479L39.3489 9.2673H38.7205L38.4308 8.49665H37.0366L36.7469 9.2673H36.1578ZM37.228 7.98939H38.2394L37.7386 6.58466L37.228 7.98939Z" fill="black"/>
<path d="M39.8629 9.2673V5.85303H40.452V7.25776H42.1212V5.85303H42.7103V9.2673H42.1212V7.76502H40.452V9.2673H39.8629Z" fill="black"/>
<path d="M44.992 9.32095C44.7826 9.32095 44.5829 9.28843 44.3931 9.2234C44.2065 9.15837 44.0396 9.05757 43.8923 8.92099C43.7451 8.78117 43.6289 8.60233 43.5438 8.38447C43.4619 8.16335 43.421 7.89671 43.421 7.58455V7.487C43.421 7.18785 43.4619 6.93259 43.5438 6.72123C43.6289 6.50662 43.7451 6.33103 43.8923 6.19446C44.0396 6.05789 44.2065 5.95871 44.3931 5.89693C44.5829 5.83189 44.7826 5.79938 44.992 5.79938C45.2015 5.79938 45.3995 5.83189 45.5861 5.89693C45.7759 5.95871 45.9445 6.05789 46.0917 6.19446C46.239 6.33103 46.3536 6.50662 46.4354 6.72123C46.5205 6.93259 46.563 7.18785 46.563 7.487V7.58455C46.563 7.89671 46.5205 8.16335 46.4354 8.38447C46.3536 8.60233 46.239 8.78117 46.0917 8.92099C45.9445 9.05757 45.7759 9.15837 45.5861 9.2234C45.3995 9.28843 45.2015 9.32095 44.992 9.32095ZM44.992 8.80393C45.1557 8.80393 45.3095 8.76491 45.4535 8.68687C45.5975 8.60883 45.7154 8.48202 45.807 8.30643C45.8986 8.12758 45.9445 7.88696 45.9445 7.58455V7.487C45.9445 7.20085 45.8986 6.97324 45.807 6.80415C45.7154 6.63181 45.5975 6.50824 45.4535 6.43346C45.3095 6.35542 45.1557 6.3164 44.992 6.3164C44.8284 6.3164 44.6729 6.35542 44.5256 6.43346C44.3816 6.50824 44.2638 6.63181 44.1722 6.80415C44.0838 6.97324 44.0396 7.20085 44.0396 7.487V7.58455C44.0396 7.88696 44.0838 8.12758 44.1722 8.30643C44.2638 8.48202 44.3816 8.60883 44.5256 8.68687C44.6729 8.76491 44.8284 8.80393 44.992 8.80393Z" fill="black"/>
<path d="M29.0158 22.4732C29.1432 22.6183 29.2127 22.8047 29.2109 22.997V34.6304H29.1977L19.416 23.657C19.2885 23.512 19.2191 23.3258 19.2208 23.1332V13.1393L14.6583 18.2829L0.680547 33.8578C0.628228 33.9177 0.55856 33.9601 0.481065 33.9792C0.403569 33.9983 0.322025 33.9931 0.247574 33.9645C0.173125 33.9359 0.109402 33.885 0.0651114 33.8191C0.0208208 33.7532 -0.00187675 33.6752 0.000121468 33.596V22.7273C-0.00161913 22.5349 0.0678257 22.3485 0.195283 22.2035L19.2393 0.830208L19.9855 0V12.3091L29.0158 22.4732Z" fill="#ED1C24"/>
</svg>
