<svg width="30" height="36" viewBox="0 0 30 36" fill="none" xmlns="http://www.w3.org/2000/svg">
<path d="M29.7996 23.2465C29.9304 23.3965 30.0018 23.5893 30 23.7883V35.822H29.9864L19.9404 24.471C19.8095 24.3209 19.7382 24.1283 19.74 23.9291V13.5914L15.0542 18.912L0.69893 35.0226C0.645198 35.0849 0.573647 35.1284 0.494061 35.1485C0.414471 35.1681 0.330725 35.1627 0.254262 35.1333C0.177802 35.1036 0.112357 35.051 0.06687 34.9826C0.0213832 34.9145 -0.00192744 34.8338 0.000124749 34.7518V23.5093C-0.00166286 23.3103 0.0696576 23.1175 0.200558 22.9675L19.7589 0.858772L20.5254 0V12.7326L29.7996 23.2465Z" fill="#ED1C24"/>
</svg>
