<svg width="214" height="699" viewBox="0 0 214 699" fill="none" xmlns="http://www.w3.org/2000/svg">
<path d="M90.0727 0C97.2549 0.391979 106.019 3.51977 112.749 5.89895C122.982 18.4744 123.934 26.2047 128.647 41.5915C126.871 47.9146 123.789 62.4788 122.239 66.5962C109.699 99.7891 102.145 98.7658 139.573 110.247C144.189 111.748 164.541 118.138 166.688 121.724C182.521 148.19 173.515 168.082 193.851 195.784C194.255 217.41 202.696 251.294 173.483 251.31C170.642 251.311 167.479 251.735 164.59 251.894C172.982 279.169 187.734 339.463 190.397 369.968C189.897 374.923 179.358 382.473 179.099 386.957C174.193 469.709 189.138 551.983 189.832 634.687C189.978 650.35 218.642 676.306 213.348 691.217C198.322 710.771 174.516 685.842 159.716 678.134C150.936 647.674 139.606 620.459 133.973 588.514C128.598 561.858 127.016 535.364 120.916 508.769C117.236 492.698 111.587 470.778 110.506 454.464C110.538 447.55 109.908 430.142 105.212 425.323C102.081 432.158 100.693 452.321 99.5467 460.4C92.7681 508.436 93.8011 556.218 98.8367 604.29C100.854 628.957 104.824 653.547 93.4943 676.809C82.4871 699.399 66.9608 704.206 44.8172 693.666C45.6726 684.909 48.2387 675.524 49.9495 667.233C48.2548 662.38 44.1231 653.894 44.1231 648.996C44.2522 574.66 47.8352 503.982 29.3714 431.005C27.9349 425.321 26.9504 411.925 26.3048 405.72C24.4971 388.207 21.6081 390.886 6.95331 385.762C-2.92419 365.74 37.9899 266.997 9.37426 234.765C2.32121 226.827 -2.69816 138.907 1.57886 124.238C29.8072 105.327 37.9416 113.23 64.556 88.3671C66.9124 54.3083 23.1737 14.9161 90.0727 0ZM105.438 127.091C109.36 116.67 111.587 117.39 102.549 109.624C98.3687 110.723 99.1918 111.261 96.0607 115.92L94.7856 110.16C98.2395 104.835 98.5624 110.483 99.3048 104.864C94.5597 103.065 93.8011 103.27 88.7655 104.249L87.1677 105.781C88.2006 111.234 88.4266 109.214 86.7157 114.276C78.4361 114.536 80.7117 107.545 77.3546 102.949C75.2888 107.601 74.2721 108.699 77.2902 114.686C82.5679 125.16 92.1387 147.067 99.0627 155.354L101.903 156.345C105.05 151.615 105.696 133.347 105.438 127.091ZM59.2136 216.795C54.5331 217.812 44.1715 219.4 40.7015 221.543C41.9765 227.556 44.9624 224.517 44.1554 230.712C56.5829 230.903 84.9727 228.466 96.8031 231.958C99.9503 232.885 97.7229 238.84 103.565 242.644C105.502 237.581 102.742 222.18 101.387 216.414L99.095 215.365L96.5448 217.654L96.2867 223.073L94.0432 223.383L86.6834 217.77C67.8968 216.441 69.769 209.313 39.039 210.464L37.6995 214.163L35.8111 213.688C38.1998 215.171 55.0173 216.338 59.2136 216.795ZM45.0914 207.333L43.1386 205.122C34.1488 204.645 30.4689 204.831 21.5113 205.855C27.1441 208.913 39.2004 209.381 45.0914 207.333Z" fill="#B9B7B7"/>
</svg>
