<svg width="145" height="571" viewBox="0 0 145 571" fill="none" xmlns="http://www.w3.org/2000/svg">
<path d="M57.127 0C15.9525 2.24327 24.2019 38.0948 24.7102 65.9352C24.928 76.9495 25.8575 92.5013 13.4253 95.3402C2.31473 97.8741 0.354064 106.52 0.746202 116.154C-4.49683 153.351 19.3801 178.191 25.9012 212.189C29.5321 231.158 22.1106 256.911 24.1148 276.6C26.3515 298.571 32.7708 321.258 34.5136 343.586C35.9805 360.545 37.157 375.782 36.5615 392.895C36.2565 401.305 49.4004 402.637 55.2534 407.352C57.2722 418.506 52.7844 431.659 53.6268 441.707C55.0501 458.786 61.9052 479.563 59.7702 497.103C59.3636 500.524 48.9501 507.748 47.4251 512.816C44.9126 521.148 52.6537 548.551 56.3863 555.412L57.9548 555.576C57.9548 552.468 57.5916 549.413 58.9859 546.763C63.9094 550.072 63.7061 557.62 73.3934 566.56C83.3566 569.171 104.053 575.414 110.821 565.928C111.039 561.341 110.182 560.472 107.422 556.661C112.244 553.228 114.118 551.438 112.956 545.471C109.005 541.507 99.9425 538.626 94.3945 536.476C90.8217 521.693 86.4937 509.358 83.0371 493.289C88.6432 477.237 91.5915 455.764 97.5026 440.601C102.818 426.96 113.028 396.547 120.45 385.266C140.609 378.022 138.082 375.408 134.552 355.934C129.687 329.007 123.878 301.333 120.668 274.191C122.817 272.756 126.346 272.672 129.062 272.339C133.449 265.109 107.175 224.927 109.557 212.356C120.842 206.277 111.968 205.779 118.664 198.356C132.795 193.284 146.956 215.555 144.777 176.824C135.264 166.095 122.701 157.265 113.377 145.164C81.0764 103.263 97.6915 70.8096 83.2695 26.3075C79.0141 13.1777 69.6464 5.40912 57.127 0Z" fill="#B9B7B7"/>
</svg>
