<svg width="161" height="631" viewBox="0 0 161 631" fill="none" xmlns="http://www.w3.org/2000/svg">
<path d="M97.5693 0C143.287 2.47899 134.128 42.0978 133.563 72.8635C133.321 85.0353 132.289 102.221 146.093 105.358C158.43 108.159 160.607 117.713 160.171 128.36C165.993 169.465 139.481 196.916 132.241 234.486C128.209 255.448 136.45 283.906 134.224 305.665C131.741 329.944 124.613 355.015 122.678 379.689C121.049 398.431 119.743 415.269 120.404 434.18C120.743 443.473 106.149 444.946 99.6497 450.156C97.4081 462.482 102.391 477.017 101.456 488.121C99.8754 506.994 92.2639 529.955 94.6344 549.338C95.086 553.119 106.648 561.102 108.342 566.702C111.132 575.91 102.536 606.192 98.3918 613.774L96.6502 613.955C96.6502 610.521 97.0534 607.144 95.5053 604.216C90.0385 607.873 90.2642 616.214 79.508 626.093C68.4454 628.978 45.4655 635.877 37.9507 625.395C37.7088 620.326 38.6602 619.366 41.7242 615.154C36.3703 611.36 34.2901 609.382 35.5802 602.788C39.9665 598.408 50.0293 595.224 56.1896 592.848C60.1566 576.512 64.9621 562.881 68.8002 545.123C62.5755 527.385 59.3019 503.655 52.7385 486.899C46.8363 471.824 35.4995 438.215 27.259 425.75C4.8758 417.744 7.68182 414.856 11.6005 393.335C17.0028 363.579 23.4532 332.996 27.0171 303.003C24.6304 301.417 20.7119 301.324 17.6963 300.956C12.8261 292.967 41.9984 248.562 39.3537 234.67C26.8236 227.953 36.6767 227.402 29.2425 219.199C13.5517 213.594 -2.17137 238.206 0.247568 195.405C10.8102 183.548 24.7594 173.791 35.1125 160.418C70.9772 114.114 52.5288 78.2502 68.5421 29.0719C73.2671 14.5624 83.6685 5.9775 97.5693 0Z" fill="#B9B7B7"/>
</svg>
