<svg width="211" height="561" viewBox="0 0 211 561" fill="none" xmlns="http://www.w3.org/2000/svg">
<path d="M109.457 0C141.716 12.6156 121.565 15.628 139.477 31.1094C144.668 46.2532 115.961 56.921 145.906 70.4004C159.228 76.3935 174.325 77.7599 186.746 83.9131C217.179 132.584 218.731 208.611 192.788 259.606C196.966 278.097 198.642 280.226 180.055 285.24C178.078 311.88 167.684 340.189 162.58 366.471C161.567 371.705 167.608 378.214 167.358 383.531C167.183 389.168 163.105 393.908 162.092 399.268C161.517 402.228 164.869 403.65 165.47 405.519C169.335 417.53 166.158 485.366 169.122 489.413C169.267 489.158 169.401 488.915 169.527 488.685L170.03 495.375C169.866 495.296 169.704 495.216 169.547 495.131C162.168 502.023 177.427 538.251 165.395 549.175C156.225 557.493 111.833 568.722 110.732 549.402C110.67 548.157 110.62 546.911 110.607 545.664C103.403 540.218 84.8021 547.715 79.9863 539.947C80.0736 538.328 80.1119 535.63 80.5459 534.164L0 537L0.420898 238H17.9297C23.7921 235.476 42.2872 227.626 42.9746 227.096C53.119 206.069 63.9259 173.681 69.7549 150.687C72.9319 138.152 69.9303 121.849 74.083 109.413C84.6526 101.698 96.3857 91.0191 108.544 87.5088C106.468 84.3038 102.039 84.7992 101.438 83.0234C93.3955 58.9857 71.8815 41.3773 84.2773 12.5791C94.8467 2.74551 95.3101 2.34895 109.457 0ZM100.863 422.161C97.5236 432.836 96.7479 495.779 101.563 504.927C105.041 493.755 108.832 470.865 112.659 456.615C108.181 447.251 105.279 433.155 100.863 422.161ZM173.612 251.253C174.125 257.464 172.587 269.926 173.938 271.978L176.465 270.868C177.716 265.502 180.555 259.078 180.055 255.141C177.365 252.783 176.965 252.478 173.612 251.253ZM103.628 98.8428C101.789 103.651 98.3236 119.974 99.7871 124.342C103.014 118.037 108.118 105.573 103.628 98.8428ZM131.071 66.7998C123.891 73.1972 113.56 78.1217 110.958 87.6289C115.673 89.1278 116.812 84.9396 120.477 87.7676C119.714 94.7331 116.549 92.5247 115.136 99.7178C114.16 104.754 115.911 112.244 114.798 116.754L114.598 121.214L116.148 122.203C116.699 121.302 130.983 72.0936 131.959 67.5869L131.071 66.7998Z" fill="#B9B7B7"/>
</svg>
