<svg width="291" height="532" viewBox="0 0 291 532" fill="none" xmlns="http://www.w3.org/2000/svg">
<path d="M7.01942 370.586C0.97423 377.526 3.6471 375.944 0 382.36L0.424622 388.078C13.6266 395.219 51.6964 381.515 57.5792 366.2C58.491 363.81 61.2013 360.104 63.462 358.873C72.8295 368.023 47.9619 475.503 54.1694 485.01C58.5659 486.478 61.1763 487.009 65.6602 487.88L66.9718 489.896C59.9149 496.966 57.3419 499.324 52.7956 508.511C39.6935 514.705 25.055 513.991 17.4236 521.557C16.0247 526.101 19.0972 530.778 23.3439 531.28C42.6161 533.554 61.5511 529.353 81.1855 528.554C86.0691 528.355 105.054 526.874 110.025 522.173C112.56 514.848 104.704 483.652 105.691 474.469C106.578 466.371 108.014 463.312 110.262 457.134C102.319 435.6 108.251 443.327 111.561 423.39C113.572 411.336 109.875 391.882 112.948 379.289C114.334 373.635 120.754 368.022 124.651 364.119C125.8 370.828 125.263 404.081 125.25 412.28C125.088 446.282 125.126 480.283 125.363 514.284C177.209 514.843 237.923 512.572 290.519 511.503L290.582 372.074C290.594 348.625 290.794 324.647 290.319 301.182C290.232 296.625 290.444 296.677 287.834 294.42C282.563 293.262 278.241 294.371 272.933 295.257C273.17 267.01 263.416 236.539 265.401 212.343C268.049 180.09 282.45 151.613 273.408 116.601C266.513 89.8565 253.286 93.2291 231.191 82.4191C227.519 80.6208 217.39 69.8308 211.057 65.7836C211.382 64.6598 211.694 63.531 211.994 62.396C215.366 49.2708 216.478 29.0711 208.971 17.1436C201.115 4.65162 192.235 3.27129 179.345 0C171.838 5.75291 154.09 13.2954 154.265 24.0541C154.677 49.5649 165.006 68.1251 180.869 87.3686C142.599 111.443 148.469 96.966 141.95 147.078C139.701 164.346 120.692 192.563 119.88 211.829C119.343 224.864 121.528 236.539 121.191 249.814C113.785 252.78 106.39 255.792 99.0213 258.851C85.4696 275.264 76.4268 300.95 62.925 316.802C47.0126 335.467 23.4813 351.693 7.01942 370.586Z" fill="#B9B7B7"/>
</svg>
