<svg xmlns="http://www.w3.org/2000/svg">
  <g id="team-group-left">
    <path id="Vector" d="M73.3666 35.0549C76.0016 26.3411 78.634 14.5176 84.5946 7.66632C95.9028 -5.17897 119.168 -0.161151 130.474 10.1109C150.398 28.216 126.434 54.6118 128.156 75.3108C149.832 97.0289 158.65 89.9647 182.113 106.864C186.304 125.378 181.926 179.297 175.891 198.526C173.324 206.708 165.55 220.208 165.466 229.091C165.283 248.411 180.964 315.873 178.041 330.302C173.8 334.877 169.743 332.423 165.989 334.957C159.249 341.387 160.31 360.815 158.296 369.374C144.407 428.436 144.005 485.26 145.995 545.468C146.316 555.184 138.562 572.469 144.582 580.477L146.868 579.994C168.204 559.225 188.781 498.416 200.223 468.483L198.545 464.854C202.727 453.718 218.461 434.255 226.058 416.827C221.461 400.837 223.554 371.784 220.781 354.523C220.744 354.286 226.326 347.052 226.328 347.012C226.713 339.289 226.844 331.531 227.296 323.81C229.012 307.24 232.515 286.216 236.251 270.392C238.633 260.296 259.741 249.031 268.746 244.804C253.181 212.883 238.37 200.803 247.298 161.319C251.993 154.913 256.426 152.414 263.014 147.975C275.043 147.686 286.078 146.101 296.146 152.507C318.408 166.671 301.932 196.476 304.322 211.301C308.575 237.608 279.38 235.617 278.593 251.268C280.802 252.584 282.957 253.978 285.07 255.449C284.49 262.083 278.33 263.412 277.86 270.958C278.662 274.779 279.034 275.151 281.893 277.848C285.705 274.761 298.563 235.612 310.55 227.991C326.198 236.961 351.374 250.904 361.263 264.972C362.699 278.283 365.765 286.694 365.448 300.968C364.992 321.246 352.645 345.813 351.264 363.238C348.35 400.041 356.415 426.668 341.527 463.752C349.952 463.036 357.451 462.27 365.945 462.585L366 690.031C317.124 691.069 257.338 693.741 209.606 693.134C208.997 662.248 208.52 628.391 209.697 597.534C202.368 600.255 176.549 680.447 166.867 689.886C164.821 691.881 162.946 692.847 160.757 695.1C163.365 697.575 164.41 698.335 166.011 701.597L164.771 704.398C153.232 712.552 81.6764 710.853 64.9656 710.853C57.8586 704.006 42.1988 700.134 41.0939 689.627C38.6315 666.215 86.1981 662.344 95.8254 652.201C108.023 639.351 124.767 620.962 134.15 606.769C130 600.417 114.435 598.449 109.477 591.594C102.453 582.054 98.0724 570.825 96.7784 559.045C95.4167 546.361 99.3071 513.731 100.756 499.201C103.834 468.317 102.463 392.97 93.0398 364.775L91.2818 364.901C88.8691 409.253 74.5294 458.209 69.1046 503.009C66.2127 526.885 54.1104 560.151 46.3779 583.422C35.9674 588.375 24.2546 602.04 11.8665 600.654C-12.1944 597.382 6.82284 576.149 12.6399 564.704C17.5316 556.459 22.7493 545.521 22.5407 535.681C21.0644 466.141 35.02 397.859 29.9998 328.094C29.8189 325.576 23.339 324.604 20.3587 321.235C17.6118 311.54 38.2959 231.275 42.2485 216.479C39.8082 216.304 37.3692 216.092 34.9358 215.847C29.5138 215.289 21.2398 213.831 18.2069 209.055C15.1299 202.175 15.8274 183.748 17.899 176.956C24.7739 154.476 31.9444 132.819 37.2947 109.873C40.9932 94.0091 81.2746 94.3797 88.7903 83.3015C89.5099 77.2314 82.704 72.3007 80.2346 63.2758C77.6189 53.713 75.7296 44.5637 73.3666 35.0549ZM93.3906 109.612C93.979 120.973 95.0079 130.731 96.3005 142.004C101.995 125.513 116.771 99.2108 125.999 83.9057C125.177 82.895 124.407 81.7846 123.345 81.0629C118.08 87.9584 115.562 92.112 111.242 99.6782L109.283 99.0062C108.117 93.8252 108.437 90.822 104.979 87.7939C101.127 87.7538 100.662 87.8395 97.259 89.6342C99.5516 91.0847 100.725 91.8825 102.87 93.6427C102.408 96.2712 102.648 98.0577 101.006 99.4003C98.93 97.0953 98.5047 96.3735 96.998 93.7754C93.1199 94.8014 93.7124 95.1816 90.4517 98.4268C90.0595 101.44 92.2858 106.491 93.3906 109.612ZM258.526 400.681C262.116 401.191 270.444 403.024 272.847 401.243C265.348 397.843 262.296 398.188 254.01 398.262C251.841 406.255 255.239 411.566 259.368 417.899C254.769 418.768 256.081 415.056 249.231 416.38L248.402 418.547C253.001 421.256 257.379 421.499 258.553 424.429L251.869 428.812L251.924 430.505C286.506 435.334 258.664 408.048 257.78 403.473L258.526 400.681ZM239.405 442.27L247.574 437.507L247.657 435.571C243.011 432.624 243.149 433.086 238.614 436.691C236.088 433.356 235.951 431.376 236.608 427.142L234.057 425.414C230.527 428.584 228.529 429.841 227.497 434.372L228.605 437.615L230.146 437.297L231.863 432.017C234.26 437.186 233.475 439.494 237.005 442.436L239.405 442.27ZM145.447 181.05C148.176 177.114 154.377 180.328 161.76 176.746C144.32 174.745 147.316 179.248 132.658 181.049C136.09 181.172 142.282 181.606 145.447 181.05Z" fill="currentColor"/>
  </g>
  <g id="team-top-seated">
    <path id="Vector" d="M96.7673 121.587C99.7272 112.185 99.4885 100.221 104.143 91.6928C109.048 82.6949 125.996 83.397 133.001 77.3624C135.627 67.6961 92.7215 -2.40856 156.99 0.0638417C168.722 6.90856 171.408 7.2638 176.229 19.6222C181.123 32.1835 168.722 58.1509 171.634 63.3982C180.013 78.5182 208.632 88.7979 215.447 108.129C226.236 138.784 209.527 157.866 204.025 186.43C201.627 198.913 202.76 213.597 201.269 226.464C199.275 243.731 193.571 264.603 192.663 281.533C201.352 279.726 204.67 279.735 213.573 280.043L213.812 395.923C194.167 396.193 164.235 397.307 145.032 395.642C137.692 401.308 140.461 414.637 129.445 417.786C118.178 421.007 103.26 426.609 91.5996 425.946C86.8615 423.22 87.2912 420.458 86.5632 415.08C81.1328 412.599 71.943 420.52 65.1998 413.981C64.8418 404.193 78.1849 403.274 81.5863 398.045C74.688 396.901 37.5111 397.421 27.653 397.444C27.3546 377.801 26.5788 348.631 28.1661 329.692C21.5184 314.718 8.78402 302.922 0 284.029C3.46109 270.918 4.79779 268.784 14.9185 259.958C26.3759 251.015 47.4289 236.026 61.0346 231.726C65.0328 221.42 70.6659 214.312 74.8073 202.01C83.3884 176.501 72.862 170.424 92.626 150.458C93.3182 140.664 95.1084 131.25 96.7673 121.587ZM122.38 208.342C129.361 171.892 129.564 140.232 145.998 105.117C148.731 99.2312 151.99 93.6071 155.737 88.3142C158.53 84.4064 167.362 74.6836 168.436 71.4395C167.577 70.2429 167.72 69.9908 166.574 69.6296C157.539 75.2393 153.207 77.7069 143.552 82.1668L143.528 83.2518L146.118 84.9585C144.769 87.2052 136.295 91.676 133.479 93.3178C129.218 112.192 123.215 129.443 120.303 149.077C119.014 157.748 121.592 162.096 120.888 164.863C116.901 180.452 105.181 189.151 111.292 206.937C115.421 207.691 118.119 208.237 122.38 208.342ZM96.0393 237.335C99.9778 240.814 100.026 241.9 104.776 242.913C111.161 238.483 109.299 231.292 108.917 224.05C107.043 223.019 106.769 222.782 104.704 222.372C100.766 231.842 96.9106 233.49 88.3414 239.239C91.719 238.724 92.8169 238.458 96.0393 237.335ZM84.3075 317.686C83.5078 313.351 83.2214 309.433 80.2735 306.169C78.0656 304.984 77.5523 304.608 74.9863 304.527C78.0536 309.827 79.9871 315.843 84.3075 317.686Z" fill="currentColor"/>
  </g>
  <g id="team-group-middle">
    <path id="Vector" d="M182.324 6.48699C190.751 -0.289697 192.752 -0.492423 203.404 0.349232C218.003 1.61262 219.092 14.4067 217.687 25.9383C217.171 30.1809 214.517 41.8691 216.933 44.5841C230.44 59.7629 258.059 45.471 258.371 72.8302C258.396 75.0321 265.206 88.6326 265.87 92.0272C268.986 105.61 274.272 127.371 272.721 140.981C271.506 151.644 261.251 178.62 254.018 185.817C251.534 198.191 252.382 210.489 252.008 223.103C251.734 232.334 249.684 241.758 249.771 251.027C250.098 283.195 254.071 315.59 251.679 347.714C251.002 356.8 242.657 366.849 250.065 376.032C253.255 379.986 258.085 385.999 257.561 391.21C255.22 393.631 249.16 395.216 245.787 396.046C238.404 394.016 233.012 390.943 227.593 385.544C215.342 373.341 204.798 391.943 192.392 381.911C191.105 379.442 190.924 378.913 190.295 376.198C167.794 371.623 167.876 371.285 153.439 353.96C149.563 359.579 161.319 433.561 161.917 443.136C162.082 445.776 158.503 446.071 156.218 446.49C153.753 446.93 151.284 447.35 148.812 447.75C156.238 453.125 157.579 453.429 161.054 461.637C171.978 467.594 182.154 466.037 187.41 471.819C187.922 475.045 188.049 473.791 186.615 476.91C180.736 481.928 128.829 476.894 121.719 473.27C118.871 468.946 122.056 468.7 119.138 464.509C113 465.708 80.0022 465.182 71.8294 465.245C50.7809 465.408 27.5824 467.002 6.84082 466.488C6.42167 438.405 6.78558 409.601 6.68238 381.46C6.62987 367.126 5.95003 342.392 7.27806 328.898L2.34161 325.24C2.26285 312.938 1.33312 293.487 3.94393 282.102C9.4317 258.182 8.19237 249.992 3.45146 226.644C1.88352 218.543 0.789977 210.356 0.177107 202.126C-0.257424 195.467 0.108288 188.78 1.26704 182.207C5.32719 159.727 14.5845 162.73 31.534 154.689C34.4055 153.327 41.9808 145.533 46.9426 142.111C41.9953 126.922 43.5515 110.414 55.1652 98.9026C59.3992 97.4374 65.5894 96.012 70.0624 94.8481C76.0743 99.5415 88.3842 103.791 88.1678 112.524C87.7224 130.499 80.1752 144.496 68.938 157.729C75.494 161.929 90.0762 167.516 92.7693 174.172C95.8844 181.867 95.1447 192.766 97.1535 201.107C100.447 214.779 108.108 227.024 111.978 240.277C115.096 224.45 109 146.756 114.785 137.615C126.336 130.101 151.789 88.2226 154.867 73.5832C155.324 71.4266 155.718 69.2573 156.051 67.0771C167.202 62.2516 179.468 57.5356 189.429 50.7472C182.984 39.3378 178.372 34.877 179.907 20.444C180.566 14.2483 179.894 12.7985 182.324 6.48699ZM168.049 116.587C167.128 117.665 166.246 118.776 165.405 119.918C162.915 123.326 155.399 132.858 155.945 136.47L158.273 137.045C162.905 136.698 168.206 136.152 172.779 136.424L173.434 135.217C173.021 129.869 169.834 122.019 168.049 116.587ZM44.4975 147.834C44.4386 148.057 43.7397 150.679 43.7397 150.679C49.4221 166.956 56.2914 182.223 61.6578 198.708C62.5278 199.123 62.8609 199.495 63.5978 199.327C61.2233 190.886 59.3765 183.518 59.4942 174.934C59.5404 171.568 64.9548 161.992 61.8235 161.568C56.7349 160.877 45.6019 148.212 44.4975 147.834ZM91.2521 276.829C93.8222 276.076 94.5138 275.97 96.3298 274.035L96.2483 272.783C92.7956 273.29 87.7768 274.532 84.8346 273.124C83.9348 271.539 83.6668 271.151 83.2875 269.376C81.7504 269.809 81.0108 270.013 79.5723 270.703C76.9714 268.612 80.9211 269.127 75.8905 263.492C73.0344 268.327 70.1483 272.928 68.0716 278.161L68.5461 279.049C69.8515 277.767 72.8253 274.474 74.3335 274.104L75.6823 276.514C80.951 277.148 85.9653 276.934 91.2521 276.829ZM203.333 59.057C205.549 64.8273 206.846 67.3912 206.785 73.6402C207.563 73.338 208.494 73.1859 208.595 72.594C209.421 67.8075 214.54 52.188 213.704 48.5788L213.088 47.872C209.728 53.8007 208.55 54.5274 203.333 59.057ZM196.602 78.5128C200.126 68.2916 194.938 71.3895 195.639 63.8635L198.086 59.6516C196.84 57.8542 192.437 56.0035 190.245 54.8994C192.988 63.1024 192.797 76.0466 194.602 80.292C196.178 79.8033 195.621 80.1852 196.602 78.5128Z" fill="currentColor"/>
  </g>
  <g id="team-group-bottom">
    <path id="Vector" d="M83.6461 12.5796C94.2002 2.74568 94.6622 2.34897 108.788 0C141 12.6159 120.879 15.6281 138.765 31.1098C143.948 46.2535 115.283 56.9209 145.185 70.4002C158.486 76.3934 173.562 77.76 185.965 83.9134C216.353 132.585 217.902 208.611 191.997 259.607C196.169 278.097 197.843 280.226 179.283 285.24C177.309 311.88 166.93 340.189 161.834 366.47C160.822 371.705 166.855 378.214 166.605 383.531C166.43 389.168 162.358 393.907 161.347 399.267C160.772 402.228 164.12 403.65 164.719 405.518C168.578 417.528 165.406 485.366 168.366 489.413C172.013 482.997 169.34 484.578 175.386 477.639C191.848 458.746 215.379 442.52 231.291 423.854C244.793 408.002 253.836 382.316 267.388 365.904C274.757 362.845 282.151 359.833 289.557 356.867C289.895 343.591 287.709 331.917 288.246 318.882C289.058 299.616 308.068 271.399 310.316 254.13C316.836 204.019 310.965 218.495 349.235 194.421C333.372 175.178 323.043 156.618 322.631 131.107C322.456 120.348 340.205 112.806 347.711 107.053C360.601 110.324 369.481 111.704 377.338 124.196C384.844 136.124 383.732 156.323 380.36 169.449C380.06 170.584 379.748 171.713 379.423 172.836C385.756 176.884 395.885 187.673 399.557 189.472C421.652 200.282 434.879 196.909 441.774 223.654C450.817 258.666 436.416 287.142 433.768 319.396C431.782 343.591 441.537 374.063 441.299 402.309C446.608 401.423 450.929 400.315 456.2 401.472C458.81 403.73 458.598 403.677 458.685 408.235C459.16 431.7 458.96 455.677 458.948 479.127L458.885 618.556C406.29 619.625 345.575 621.896 293.729 621.337C293.492 587.336 293.454 553.334 293.617 519.332C293.629 511.134 294.166 477.881 293.017 471.172C289.12 475.075 282.7 480.688 281.314 486.342C278.241 498.935 281.938 518.389 279.927 530.443C276.618 550.38 270.685 542.653 278.629 564.187C276.38 570.365 274.944 573.424 274.057 581.522C273.07 590.705 280.927 621.901 278.391 629.226C273.42 633.926 254.435 635.408 249.552 635.607C229.917 636.405 210.982 640.607 191.71 638.333C187.463 637.831 184.391 633.154 185.79 628.61C193.421 621.044 208.06 621.757 221.162 615.564C225.708 606.377 228.281 604.019 235.338 596.948L234.026 594.932C229.543 594.061 226.932 593.531 222.536 592.063C216.328 582.556 241.196 475.076 231.828 465.926C229.567 467.157 226.857 470.863 225.945 473.253C220.063 488.568 181.993 502.271 168.791 495.131C161.422 502.022 176.66 538.251 164.644 549.174C155.489 557.493 111.162 568.722 110.062 549.402C110 548.157 109.95 546.911 109.938 545.664C102.743 540.218 84.1706 547.715 79.362 539.947C79.4494 538.323 79.4868 535.614 79.924 534.151C62.3879 532.378 21.5329 536.534 0 536.455L0.11252 238.071C5.64562 238.005 10.4542 238.287 15.9623 238.621C18.9725 237.288 41.642 227.684 42.4039 227.095C52.5333 206.069 63.3246 173.681 69.145 150.687C72.3175 138.152 69.32 121.849 73.4667 109.413C84.0208 101.698 95.7364 91.0191 107.877 87.5088C105.803 84.3038 101.382 84.7994 100.782 83.0236C92.7513 58.9858 71.2685 41.3779 83.6461 12.5796ZM111.986 456.615C107.515 447.25 104.617 433.155 100.208 422.161C96.873 432.836 96.0986 495.78 100.907 504.927C104.38 493.755 108.164 470.865 111.986 456.615ZM361.063 233.505C359.889 238.544 357.628 246.514 358.028 251.381C360.264 249.788 361.688 244.651 362.487 241.911C368.769 220.496 382.421 195.7 385.581 175.791C379.448 181.621 378.612 185.756 371.829 191.838C367.795 191.353 362.637 190.168 359.214 191.966C357.241 194.888 357.541 195.934 357.753 199.441C358.465 211.988 365.909 221.14 361.063 233.505ZM346.687 352.126C344.276 348.348 341.591 342.307 338.244 341.444L336.345 342.936C336.145 345.631 336.008 347.896 335.983 350.612C331.149 350.563 327.677 346.704 325.017 347.891C326.353 349.984 327.34 350.453 329.338 351.859C328.776 354.311 329.288 353.399 326.416 355.217C321.607 354.57 315.687 352.964 312.015 355.308C317.51 359.581 322.169 358.994 328.776 358.775C336.832 359.3 338.269 360.547 343.115 353.992C345.588 357.648 346.112 359.726 349.734 361.448C350.484 358.484 348.161 355.01 346.687 352.126ZM99.1337 124.341C102.356 118.037 107.452 105.573 102.968 98.8432C101.132 103.651 97.6723 119.974 99.1337 124.341ZM172.85 251.253C173.362 257.464 171.826 269.926 173.175 271.977L175.698 270.869C176.947 265.502 179.782 259.077 179.283 255.14C176.597 252.783 176.197 252.478 172.85 251.253ZM114.122 116.754L113.922 121.214L115.471 122.203C116.02 121.302 130.284 72.0934 131.258 67.587L130.371 66.7998C123.202 73.1972 112.885 78.1217 110.287 87.6289C114.996 89.1282 116.133 84.9396 119.792 87.7678C119.03 94.7334 115.87 92.5246 114.459 99.7179C113.485 104.754 115.233 112.244 114.122 116.754Z" fill="currentColor"/>
  </g>
  <g id="team-bottom-center">
    <path id="Vector" d="M87.873 0C129.047 2.24327 120.798 38.0948 120.29 65.9352C120.072 76.9495 119.142 92.5013 131.575 95.3402C142.685 97.8741 144.646 106.52 144.254 116.154C149.497 153.351 125.62 178.191 119.099 212.189C115.468 231.158 122.889 256.911 120.885 276.6C118.649 298.571 112.229 321.258 110.486 343.586C109.019 360.545 107.843 375.782 108.438 392.895C108.743 401.305 95.5996 402.637 89.7466 407.352C87.7278 418.506 92.2156 431.659 91.3732 441.707C89.9499 458.786 83.0948 479.563 85.2298 497.103C85.6364 500.524 96.0499 507.748 97.5749 512.816C100.087 521.148 92.3463 548.551 88.6137 555.412L87.0452 555.576C87.0452 552.468 87.4084 549.413 86.0141 546.763C81.0906 550.072 81.2939 557.62 71.6066 566.56C61.6434 569.171 40.9472 575.414 34.1792 565.928C33.9613 561.341 34.8182 560.472 37.5777 556.661C32.7558 553.228 30.8824 551.438 32.0443 545.471C35.9947 541.507 45.0575 538.626 50.6055 536.476C54.1783 521.693 58.5063 509.358 61.9629 493.289C56.3568 477.237 53.4085 455.764 47.4974 440.601C42.1818 426.96 31.9716 396.547 24.55 385.266C4.39124 378.022 6.91841 375.408 10.4477 355.934C15.3131 329.007 21.1224 301.333 24.3321 274.191C22.1826 272.756 18.6535 272.672 15.9376 272.339C11.5515 265.109 37.8246 224.927 35.4428 212.356C24.1579 206.277 33.0318 205.779 26.3364 198.356C12.2049 193.284 -1.95558 215.555 0.222965 176.824C9.73594 166.095 22.2989 157.265 31.623 145.164C63.9236 103.263 47.3085 70.8096 61.7305 26.3075C65.9859 13.1777 75.3536 5.40912 87.873 0Z" fill="currentColor"/>
  </g>
  <g id="team-bottom-right-man">
    <path id="Vector" d="M90.0727 0C97.2549 0.391979 106.019 3.51977 112.749 5.89895C122.982 18.4744 123.934 26.2047 128.647 41.5915C126.871 47.9146 123.789 62.4788 122.239 66.5962C109.699 99.7891 102.145 98.7658 139.573 110.247C144.189 111.748 164.541 118.138 166.688 121.724C182.521 148.19 173.515 168.082 193.851 195.784C194.255 217.41 202.696 251.294 173.483 251.31C170.642 251.311 167.479 251.735 164.59 251.894C172.982 279.169 187.734 339.463 190.397 369.968C189.897 374.923 179.358 382.473 179.099 386.957C174.193 469.709 189.138 551.983 189.832 634.687C189.978 650.35 218.642 676.306 213.348 691.217C198.322 710.771 174.516 685.842 159.716 678.134C150.936 647.674 139.606 620.459 133.973 588.514C128.598 561.858 127.016 535.364 120.916 508.769C117.236 492.698 111.587 470.778 110.506 454.464C110.538 447.55 109.908 430.142 105.212 425.323C102.081 432.158 100.693 452.321 99.5467 460.4C92.7681 508.436 93.8011 556.218 98.8367 604.29C100.854 628.957 104.824 653.547 93.4943 676.809C82.4871 699.399 66.9608 704.206 44.8172 693.666C45.6726 684.909 48.2387 675.524 49.9495 667.233C48.2548 662.38 44.1231 653.894 44.1231 648.996C44.2522 574.66 47.8352 503.982 29.3714 431.005C27.9349 425.321 26.9504 411.925 26.3048 405.72C24.4971 388.207 21.6081 390.886 6.95331 385.762C-2.92419 365.74 37.9899 266.997 9.37426 234.765C2.32121 226.827 -2.69816 138.907 1.57886 124.238C29.8072 105.327 37.9416 113.23 64.556 88.3671C66.9124 54.3083 23.1737 14.9161 90.0727 0ZM105.438 127.091C109.36 116.67 111.587 117.39 102.549 109.624C98.3687 110.723 99.1918 111.261 96.0607 115.92L94.7856 110.16C98.2395 104.835 98.5624 110.483 99.3048 104.864C94.5597 103.065 93.8011 103.27 88.7655 104.249L87.1677 105.781C88.2006 111.234 88.4266 109.214 86.7157 114.276C78.4361 114.536 80.7117 107.545 77.3546 102.949C75.2888 107.601 74.2721 108.699 77.2902 114.686C82.5679 125.16 92.1387 147.067 99.0627 155.354L101.903 156.345C105.05 151.615 105.696 133.347 105.438 127.091ZM59.2136 216.795C54.5331 217.812 44.1715 219.4 40.7015 221.543C41.9765 227.556 44.9624 224.517 44.1554 230.712C56.5829 230.903 84.9727 228.466 96.8031 231.958C99.9503 232.885 97.7229 238.84 103.565 242.644C105.502 237.581 102.742 222.18 101.387 216.414L99.095 215.365L96.5448 217.654L96.2867 223.073L94.0432 223.383L86.6834 217.77C67.8968 216.441 69.769 209.313 39.039 210.464L37.6995 214.163L35.8111 213.688C38.1998 215.171 55.0173 216.338 59.2136 216.795ZM45.0914 207.333L43.1386 205.122C34.1488 204.645 30.4689 204.831 21.5113 205.855C27.1441 208.913 39.2004 209.381 45.0914 207.333Z" fill="currentColor"/>
  </g>
  <g id="team-bottom-right-woman">
    <path id="Vector" d="M97.5693 0C143.287 2.47899 134.128 42.0978 133.563 72.8635C133.321 85.0353 132.289 102.221 146.093 105.358C158.43 108.159 160.607 117.713 160.171 128.36C165.993 169.465 139.481 196.916 132.241 234.486C128.209 255.448 136.45 283.906 134.224 305.665C131.741 329.944 124.613 355.015 122.678 379.689C121.049 398.431 119.743 415.269 120.404 434.18C120.743 443.473 106.149 444.946 99.6497 450.156C97.4081 462.482 102.391 477.017 101.456 488.121C99.8754 506.994 92.2639 529.955 94.6344 549.338C95.086 553.119 106.648 561.102 108.342 566.702C111.132 575.91 102.536 606.192 98.3918 613.774L96.6502 613.955C96.6502 610.521 97.0534 607.144 95.5053 604.216C90.0385 607.873 90.2642 616.214 79.508 626.093C68.4454 628.978 45.4655 635.877 37.9507 625.395C37.7088 620.326 38.6602 619.366 41.7242 615.154C36.3703 611.36 34.2901 609.382 35.5802 602.788C39.9665 598.408 50.0293 595.224 56.1896 592.848C60.1566 576.512 64.9621 562.881 68.8002 545.123C62.5755 527.385 59.3019 503.655 52.7385 486.899C46.8363 471.824 35.4995 438.215 27.259 425.75C4.8758 417.744 7.68182 414.856 11.6005 393.335C17.0028 363.579 23.4532 332.996 27.0171 303.003C24.6304 301.417 20.7119 301.324 17.6963 300.956C12.8261 292.967 41.9984 248.562 39.3537 234.67C26.8236 227.953 36.6767 227.402 29.2425 219.199C13.5517 213.594 -2.17137 238.206 0.247568 195.405C10.8102 183.548 24.7594 173.791 35.1125 160.418C70.9772 114.114 52.5288 78.2502 68.5421 29.0719C73.2671 14.5624 83.6685 5.9775 97.5693 0Z" fill="currentColor"/>
  </g>
  <g id="team-selected-person">
    <path id="Subtract" d="M108.949 0C141.208 12.6156 121.057 15.628 138.969 31.1094C144.16 46.2532 115.453 56.921 145.398 70.4004C158.72 76.3935 173.817 77.7599 186.238 83.9131C216.671 132.584 218.223 208.611 192.28 259.606C196.458 278.097 198.134 280.226 179.547 285.24C177.571 311.88 167.176 340.189 162.072 366.471C161.059 371.705 167.101 378.214 166.851 383.531C166.675 389.168 162.597 393.908 161.584 399.268C161.009 402.228 164.362 403.65 164.962 405.519C168.827 417.53 165.65 485.366 168.614 489.413C168.759 489.158 168.893 488.915 169.02 488.685L169.522 495.375C169.358 495.296 169.196 495.216 169.039 495.131C161.66 502.023 176.92 538.251 164.887 549.175C155.718 557.493 111.326 568.722 110.225 549.402C110.162 548.157 110.112 546.911 110.1 545.664C102.895 540.218 84.2943 547.715 79.4785 539.947C79.5661 538.323 79.6042 535.613 80.042 534.15C62.4801 532.377 21.5646 536.534 0 536.455L0.112305 238.07C5.65355 238.005 10.4701 238.287 15.9863 238.621C19.0024 237.288 41.7038 227.684 42.4668 227.096C52.6112 206.069 63.4181 173.681 69.2471 150.687C72.424 138.152 69.4225 121.849 73.5752 109.413C84.1448 101.698 95.8779 91.0191 108.036 87.5088C105.96 84.3038 101.531 84.7992 100.931 83.0234C92.8877 58.9857 71.3737 41.3773 83.7695 12.5791C94.3389 2.74551 94.8023 2.34895 108.949 0ZM100.355 422.161C97.0157 432.836 96.24 495.779 101.056 504.927C104.533 493.755 108.324 470.865 112.151 456.615C107.673 447.251 104.771 433.155 100.355 422.161ZM173.104 251.253C173.617 257.464 172.079 269.926 173.43 271.978L175.957 270.868C177.208 265.502 180.047 259.078 179.547 255.141C176.858 252.783 176.457 252.478 173.104 251.253ZM103.12 98.8428C101.281 103.651 97.8158 119.974 99.2793 124.342C102.506 118.037 107.611 105.573 103.12 98.8428ZM130.563 66.7998C123.384 73.1972 113.052 78.1217 110.45 87.6289C115.166 89.1278 116.304 84.9396 119.969 87.7676C119.206 94.7331 116.041 92.5247 114.628 99.7178C113.652 104.754 115.403 112.244 114.29 116.754L114.09 121.214L115.641 122.203C116.191 121.302 130.475 72.0936 131.451 67.5869L130.563 66.7998Z" fill="currentColor"/>
  </g>
  <g id="team-deco-top-man">
    <path id="Vector" d="M29.5983 287.47C-5.35531 264.393 7.26081 221.662 7.75533 186.075C8.15335 157.676 18.9603 129.323 24.2673 101.647C29.321 75.245 39.8264 78.9422 61.9951 71.7201C103.498 58.1713 72.5245 38.4261 84.2239 10.2835C86.0814 5.83702 91.521 2.13263 96.0922 0.79929C150.199 -6.69208 134.592 40.3256 120.359 64.5555C134.206 70.0828 147.087 71.3491 161.706 76.1235C173.514 105.639 187.565 106.411 206.55 129.201L206.815 141.309C210.807 143.092 215.318 145.525 219.274 147.531C220.721 163.728 218.189 220.598 222 230.399C220.323 240.035 218.514 249.423 217.815 259.19C197.841 279.101 208.479 285.161 199.807 310.6C195.622 322.868 189.929 329.956 185.889 340.234C172.139 344.522 150.863 359.471 139.284 368.389C138.632 356.233 136.413 286.645 140.574 279.926C139.44 276.355 135.774 274.244 132.529 272.806L131.046 273.803C134.29 281.709 137.728 289.346 131.782 296.696L130.889 296.143L130.793 289.569L129.659 289.086C124.376 311.869 119.455 334.628 111.675 356.743C107.297 370.286 98.1305 387.064 98.9507 401.583C99.9639 419.344 103.86 438.981 106.224 456.821C99.7347 460.064 94.9344 458.135 91.5331 460.272C85.8161 470.234 94.6931 479.234 75.7689 477.956C67.8085 477.417 62.0311 476.626 54.0224 474.844C67.6275 449.343 55.8316 454.107 50.0904 426.774C44.4216 434.263 41.5872 441.452 32.9393 444.274C28.0545 452.295 41.1893 465.64 38.7409 476.438C22.4943 492.784 2.33989 448.193 0.603064 437.105C0.084429 433.731 0.0241226 430.086 0 426.688L10.421 419.892L5.75326 408.279C15.8003 399.909 17.8628 396.13 29.8638 390.174C32.1192 384.328 37.1125 377.728 38.5237 372.08C45.3504 344.894 29.8998 315.518 29.5983 287.47ZM69.9796 201.49C74.4544 201.576 85.5025 202.872 88.0595 202.212C88.5902 200.061 88.8917 199.155 88.8314 196.89C88.6626 168.034 85.9486 127.798 96.0922 101.745C93.0527 98.9244 89.7841 96.5928 89.1449 92.5712C91.8587 83.5239 99.192 86.6574 102.051 81.932L100.543 80.4993L96.4058 82.1439C95.7304 81.8147 87.8785 78.0744 87.6614 77.8518C85.5506 75.6663 83.4158 68.4454 81.0397 66.8392C78.6757 73.8039 84.9717 115.556 84.6823 126.106C84.3687 137.081 84.0189 153.317 82.5836 164.18C81.088 175.498 73.6101 188.816 69.9796 201.49ZM116.958 200.75L123.013 199.681C125.98 192.92 118.056 193.473 126.233 180.426C121.023 167.463 118.671 167.284 119.431 153.381C120.034 142.664 119.057 81.798 113.135 76.8704L111.507 76.6394C108.781 80.0852 105.741 82.4419 106.043 85.9703C109.854 89.4521 110.916 89.1445 111.181 93.3624C108.624 96.2134 107.526 97.19 106.224 100.73C111.446 128.484 112.001 151.83 114.956 179.746C115.583 185.619 114.052 196.937 116.958 200.75ZM21.4569 261.949C25.5095 259.815 27.8857 258.338 31.6488 255.819L31.4558 254.57C28.0786 254.147 26.9931 254.132 23.6039 254.344C19.8649 255.457 16.3551 255.828 13.9911 258.346C16.2948 259.785 16.7169 260.008 19.3583 260.855L20.878 263.22L21.4569 261.949Z" fill="currentColor"/>
  </g>
  <g id="team-deco-top-right">
    <path id="Vector" d="M138.217 289.911C145.3 290.021 147.3 289.893 153.504 293.195L154.546 292.262C154.973 284.491 152.687 278.127 152.634 271.225C152.465 249.368 146.535 228.845 144.034 207.511C142.589 193.61 148.148 172.119 145.424 159.1C139.786 132.155 125.955 122.11 126.724 92.212C127.461 63.5502 142.958 73.0799 148.931 62.9069L148.589 59.7036L145.966 59.4411C145.149 55.3114 145.754 51.7316 146.146 47.6052C148.314 24.8239 138.732 9.52212 166.757 0C207.537 16.2737 184.008 62.6596 201.974 94.1798C209.113 110.899 223.51 121.239 234.527 134.757C235.355 135.772 234.938 144.162 234.467 145.242C229.464 156.694 212.061 139.435 212.093 155.977C212.094 156.231 208.36 159.419 207.818 159.676C208.065 172.554 221.914 190.765 223.223 202.462C219.01 207.102 215.609 201.258 216.636 209.382C218.807 226.555 222.619 243.849 225.6 260.906C226.266 264.721 228.608 274.012 228.604 277.11C228.607 279.411 227.771 281.635 226.254 283.364C224.267 285.63 219.165 287.119 216.22 288.104C211.021 295.741 202.523 319.653 198.931 329.122C194.531 340.72 191.951 357.128 187.97 369.451C190.494 380.122 193.72 390.476 196.514 401.086C201.683 402.986 212.566 405.409 210.883 412.158C208.759 413.956 208.218 414.509 205.627 415.645C206.646 417.975 206.966 418.284 208.639 420.073C208.827 424.043 209.342 422.924 207.322 425.857C200.51 428.558 187.054 425.311 180.281 422.965C173.054 416.489 172.824 410.25 170.418 408.287L169.558 415.499L168.356 415.98C164.801 412.464 161.836 393.491 161.364 387.893C160.515 377.838 171.362 379.236 170.59 365.214C170.023 354.922 168.806 345.163 167.511 334.941C160.952 360.489 153.414 379.095 150.808 405.742C148.892 425.34 144.469 442.262 145.63 462.902C152.631 466.629 154.295 470.435 158.444 477.276C158.206 483.018 153.616 483.155 155.103 487.095C158.957 497.301 180.646 507.226 182.581 515.933C171.536 529.353 120.063 506.223 112.217 494.786C105.549 495.56 86.9446 494.961 79.1735 495.019L0.509034 495.452C0.318251 477.607 -1.0053 335.729 1.57027 329.495C5.03797 327.237 10.0579 327.729 14.3397 327.696C5.07808 303.157 12.5674 296.902 13.3197 273.115C13.4931 267.647 8.14796 254.396 6.46886 247.553C2.23694 230.314 2.9708 205.048 8.72898 188.017C9.66555 180.663 23.7542 177.473 24.977 173.389C32.3796 148.672 20.9651 113.505 53.7202 102.778C71.8424 96.8429 85.4184 128.94 89.9245 141.627C92.3494 148.456 90.3094 156.057 87.2492 161.885C87.0715 162.221 86.8926 162.556 86.7105 162.89C89.5039 167.434 92.2183 171.653 95.4507 175.936C99.1537 180.945 106.364 186.345 108.856 191.985C117.979 212.622 119.585 235.467 128.494 256.375C132.946 266.82 133.371 279.443 138.217 289.911ZM110.883 285.268C108.103 280.73 105.199 274.114 100.794 272.289C101.709 278.352 101.812 280.919 106.406 284.814L110.883 285.268ZM61.9705 285.585C65.4815 286.519 65.3081 287.068 68.2479 286.131C67.2224 283.011 63.2138 281.081 60.2708 280.134L55.2486 285.518L55.4622 286.337C58.0854 285.818 58.9071 285.735 61.3146 284.478L61.9705 285.585Z" fill="currentColor"/>
  </g>
</svg>

